0
SECTION
2
HEADER
9
$INSUNITS
70
1
0
ENDSEC
0
SECTION
2
TABLES
0
TABLE
2
LTYPE
0
LTYPE
72
65
70
64
2
CONTINUOUS
3
______
73
0
40
0
0
ENDTAB
0
TABLE
2
LAYER
0
ENDTAB
0
ENDSEC
0
SECTION
2
ENTITIES
0
LINE
8
front_outsideCutPath
10
0
20
4.597
11
0
21
4.013
0
LINE
8
front_outsideCutPath
10
0
20
4.013
11
0.236
21
4.013
0
LINE
8
front_outsideCutPath
10
0.236
20
4.013
11
0.236
21
3.541
0
LINE
8
front_outsideCutPath
10
0.236
20
3.541
11
0
21
3.541
0
LINE
8
front_outsideCutPath
10
0
20
3.541
11
0
21
3.069
0
LINE
8
front_outsideCutPath
10
0
20
3.069
11
0.236
21
3.069
0
LINE
8
front_outsideCutPath
10
0.236
20
3.069
11
0.236
21
2.597
0
LINE
8
front_outsideCutPath
10
0.236
20
2.597
11
0
21
2.597
0
LINE
8
front_outsideCutPath
10
0
20
2.597
11
0
21
2.125
0
LINE
8
front_outsideCutPath
10
0
20
2.125
11
0.236
21
2.125
0
LINE
8
front_outsideCutPath
10
0.236
20
2.125
11
0.236
21
1.653
0
LINE
8
front_outsideCutPath
10
0.236
20
1.653
11
0
21
1.653
0
LINE
8
front_outsideCutPath
10
0
20
1.653
11
0
21
1.181
0
LINE
8
front_outsideCutPath
10
0
20
1.181
11
0.236
21
1.181
0
LINE
8
front_outsideCutPath
10
0.236
20
1.181
11
0.236
21
0.709
0
LINE
8
front_outsideCutPath
10
0.236
20
0.709
11
0
21
0.709
0
LINE
8
front_outsideCutPath
10
0
20
0.709
11
0
21
0.237
0
LINE
8
front_outsideCutPath
10
0
20
0.237
11
0
21
0.125
0
LINE
8
front_outsideCutPath
10
0
20
0.125
11
0.556
21
0.125
0
LINE
8
front_outsideCutPath
10
0.556
20
0.125
11
0.556
21
0.361
0
LINE
8
front_outsideCutPath
10
0.556
20
0.361
11
1.028
21
0.361
0
LINE
8
front_outsideCutPath
10
1.028
20
0.361
11
1.028
21
0.125
0
LINE
8
front_outsideCutPath
10
1.028
20
0.125
11
1.5
21
0.125
0
LINE
8
front_outsideCutPath
10
1.5
20
0.125
11
1.5
21
0.361
0
LINE
8
front_outsideCutPath
10
1.5
20
0.361
11
1.972
21
0.361
0
LINE
8
front_outsideCutPath
10
1.972
20
0.361
11
1.972
21
0.125
0
LINE
8
front_outsideCutPath
10
1.972
20
0.125
11
2.444
21
0.125
0
LINE
8
front_outsideCutPath
10
2.444
20
0.125
11
2.444
21
0.361
0
LINE
8
front_outsideCutPath
10
2.444
20
0.361
11
2.916
21
0.361
0
LINE
8
front_outsideCutPath
10
2.916
20
0.361
11
2.916
21
0.125
0
LINE
8
front_outsideCutPath
10
2.916
20
0.125
11
3.388
21
0.125
0
LINE
8
front_outsideCutPath
10
3.388
20
0.125
11
3.472
21
0.125
0
LINE
8
front_outsideCutPath
10
3.472
20
0.125
11
3.472
21
0.709
0
LINE
8
front_outsideCutPath
10
3.472
20
0.709
11
3.236
21
0.709
0
LINE
8
front_outsideCutPath
10
3.236
20
0.709
11
3.236
21
1.181
0
LINE
8
front_outsideCutPath
10
3.236
20
1.181
11
3.472
21
1.181
0
LINE
8
front_outsideCutPath
10
3.472
20
1.181
11
3.472
21
1.653
0
LINE
8
front_outsideCutPath
10
3.472
20
1.653
11
3.236
21
1.653
0
LINE
8
front_outsideCutPath
10
3.236
20
1.653
11
3.236
21
2.125
0
LINE
8
front_outsideCutPath
10
3.236
20
2.125
11
3.472
21
2.125
0
LINE
8
front_outsideCutPath
10
3.472
20
2.125
11
3.472
21
2.597
0
LINE
8
front_outsideCutPath
10
3.472
20
2.597
11
3.236
21
2.597
0
LINE
8
front_outsideCutPath
10
3.236
20
2.597
11
3.236
21
3.069
0
LINE
8
front_outsideCutPath
10
3.236
20
3.069
11
3.472
21
3.069
0
LINE
8
front_outsideCutPath
10
3.472
20
3.069
11
3.472
21
3.541
0
LINE
8
front_outsideCutPath
10
3.472
20
3.541
11
3.236
21
3.541
0
LINE
8
front_outsideCutPath
10
3.236
20
3.541
11
3.236
21
4.013
0
LINE
8
front_outsideCutPath
10
3.236
20
4.013
11
3.472
21
4.013
0
LINE
8
front_outsideCutPath
10
3.472
20
4.013
11
3.472
21
4.485
0
LINE
8
front_outsideCutPath
10
3.472
20
4.485
11
3.472
21
4.597
0
LINE
8
front_outsideCutPath
10
3.472
20
4.597
11
2.916
21
4.597
0
LINE
8
front_outsideCutPath
10
2.916
20
4.597
11
2.916
21
4.361
0
LINE
8
front_outsideCutPath
10
2.916
20
4.361
11
2.444
21
4.361
0
LINE
8
front_outsideCutPath
10
2.444
20
4.361
11
2.444
21
4.597
0
LINE
8
front_outsideCutPath
10
2.444
20
4.597
11
1.972
21
4.597
0
LINE
8
front_outsideCutPath
10
1.972
20
4.597
11
1.972
21
4.361
0
LINE
8
front_outsideCutPath
10
1.972
20
4.361
11
1.5
21
4.361
0
LINE
8
front_outsideCutPath
10
1.5
20
4.361
11
1.5
21
4.597
0
LINE
8
front_outsideCutPath
10
1.5
20
4.597
11
1.028
21
4.597
0
LINE
8
front_outsideCutPath
10
1.028
20
4.597
11
1.028
21
4.361
0
LINE
8
front_outsideCutPath
10
1.028
20
4.361
11
0.556
21
4.361
0
LINE
8
front_outsideCutPath
10
0.556
20
4.361
11
0.556
21
4.597
0
LINE
8
front_outsideCutPath
10
0.556
20
4.597
11
0.084
21
4.597
0
LINE
8
front_outsideCutPath
10
0.084
20
4.597
11
0
21
4.597
0
LINE
8
left_outsideCutPath
10
3.833
20
4.597
11
3.833
21
4.013
0
LINE
8
left_outsideCutPath
10
3.833
20
4.013
11
3.597
21
4.013
0
LINE
8
left_outsideCutPath
10
3.597
20
4.013
11
3.597
21
3.541
0
LINE
8
left_outsideCutPath
10
3.597
20
3.541
11
3.833
21
3.541
0
LINE
8
left_outsideCutPath
10
3.833
20
3.541
11
3.833
21
3.069
0
LINE
8
left_outsideCutPath
10
3.833
20
3.069
11
3.597
21
3.069
0
LINE
8
left_outsideCutPath
10
3.597
20
3.069
11
3.597
21
2.597
0
LINE
8
left_outsideCutPath
10
3.597
20
2.597
11
3.833
21
2.597
0
LINE
8
left_outsideCutPath
10
3.833
20
2.597
11
3.833
21
2.125
0
LINE
8
left_outsideCutPath
10
3.833
20
2.125
11
3.597
21
2.125
0
LINE
8
left_outsideCutPath
10
3.597
20
2.125
11
3.597
21
1.653
0
LINE
8
left_outsideCutPath
10
3.597
20
1.653
11
3.833
21
1.653
0
LINE
8
left_outsideCutPath
10
3.833
20
1.653
11
3.833
21
1.181
0
LINE
8
left_outsideCutPath
10
3.833
20
1.181
11
3.597
21
1.181
0
LINE
8
left_outsideCutPath
10
3.597
20
1.181
11
3.597
21
0.709
0
LINE
8
left_outsideCutPath
10
3.597
20
0.709
11
3.833
21
0.709
0
LINE
8
left_outsideCutPath
10
3.833
20
0.709
11
3.833
21
0.237
0
LINE
8
left_outsideCutPath
10
3.833
20
0.237
11
3.833
21
0.125
0
LINE
8
left_outsideCutPath
10
3.833
20
0.125
11
4.153
21
0.125
0
LINE
8
left_outsideCutPath
10
4.153
20
0.125
11
4.153
21
0.361
0
LINE
8
left_outsideCutPath
10
4.153
20
0.361
11
4.625
21
0.361
0
LINE
8
left_outsideCutPath
10
4.625
20
0.361
11
4.625
21
0.125
0
LINE
8
left_outsideCutPath
10
4.625
20
0.125
11
5.097
21
0.125
0
LINE
8
left_outsideCutPath
10
5.097
20
0.125
11
5.097
21
0.361
0
LINE
8
left_outsideCutPath
10
5.097
20
0.361
11
5.569
21
0.361
0
LINE
8
left_outsideCutPath
10
5.569
20
0.361
11
5.569
21
0.125
0
LINE
8
left_outsideCutPath
10
5.569
20
0.125
11
6.041
21
0.125
0
LINE
8
left_outsideCutPath
10
6.041
20
0.125
11
6.041
21
0.361
0
LINE
8
left_outsideCutPath
10
6.041
20
0.361
11
6.513
21
0.361
0
LINE
8
left_outsideCutPath
10
6.513
20
0.361
11
6.513
21
0.125
0
LINE
8
left_outsideCutPath
10
6.513
20
0.125
11
6.833
21
0.125
0
LINE
8
left_outsideCutPath
10
6.833
20
0.125
11
6.833
21
0.709
0
LINE
8
left_outsideCutPath
10
6.833
20
0.709
11
7.069
21
0.709
0
LINE
8
left_outsideCutPath
10
7.069
20
0.709
11
7.069
21
1.181
0
LINE
8
left_outsideCutPath
10
7.069
20
1.181
11
6.833
21
1.181
0
LINE
8
left_outsideCutPath
10
6.833
20
1.181
11
6.833
21
1.653
0
LINE
8
left_outsideCutPath
10
6.833
20
1.653
11
7.069
21
1.653
0
LINE
8
left_outsideCutPath
10
7.069
20
1.653
11
7.069
21
2.125
0
LINE
8
left_outsideCutPath
10
7.069
20
2.125
11
6.833
21
2.125
0
LINE
8
left_outsideCutPath
10
6.833
20
2.125
11
6.833
21
2.597
0
LINE
8
left_outsideCutPath
10
6.833
20
2.597
11
7.069
21
2.597
0
LINE
8
left_outsideCutPath
10
7.069
20
2.597
11
7.069
21
3.069
0
LINE
8
left_outsideCutPath
10
7.069
20
3.069
11
6.833
21
3.069
0
LINE
8
left_outsideCutPath
10
6.833
20
3.069
11
6.833
21
3.541
0
LINE
8
left_outsideCutPath
10
6.833
20
3.541
11
7.069
21
3.541
0
LINE
8
left_outsideCutPath
10
7.069
20
3.541
11
7.069
21
4.013
0
LINE
8
left_outsideCutPath
10
7.069
20
4.013
11
6.833
21
4.013
0
LINE
8
left_outsideCutPath
10
6.833
20
4.013
11
6.833
21
4.485
0
LINE
8
left_outsideCutPath
10
6.833
20
4.485
11
6.833
21
4.597
0
LINE
8
left_outsideCutPath
10
6.833
20
4.597
11
6.513
21
4.597
0
LINE
8
left_outsideCutPath
10
6.513
20
4.597
11
6.513
21
4.361
0
LINE
8
left_outsideCutPath
10
6.513
20
4.361
11
6.041
21
4.361
0
LINE
8
left_outsideCutPath
10
6.041
20
4.361
11
6.041
21
4.597
0
LINE
8
left_outsideCutPath
10
6.041
20
4.597
11
5.569
21
4.597
0
LINE
8
left_outsideCutPath
10
5.569
20
4.597
11
5.569
21
4.361
0
LINE
8
left_outsideCutPath
10
5.569
20
4.361
11
5.097
21
4.361
0
LINE
8
left_outsideCutPath
10
5.097
20
4.361
11
5.097
21
4.597
0
LINE
8
left_outsideCutPath
10
5.097
20
4.597
11
4.625
21
4.597
0
LINE
8
left_outsideCutPath
10
4.625
20
4.597
11
4.625
21
4.361
0
LINE
8
left_outsideCutPath
10
4.625
20
4.361
11
4.153
21
4.361
0
LINE
8
left_outsideCutPath
10
4.153
20
4.361
11
4.153
21
4.597
0
LINE
8
left_outsideCutPath
10
4.153
20
4.597
11
3.833
21
4.597
0
LINE
8
top_outsideCutPath
10
7.43
20
3.361
11
7.43
21
3.041
0
LINE
8
top_outsideCutPath
10
7.43
20
3.041
11
7.194
21
3.041
0
LINE
8
top_outsideCutPath
10
7.194
20
3.041
11
7.194
21
2.569
0
LINE
8
top_outsideCutPath
10
7.194
20
2.569
11
7.43
21
2.569
0
LINE
8
top_outsideCutPath
10
7.43
20
2.569
11
7.43
21
2.097
0
LINE
8
top_outsideCutPath
10
7.43
20
2.097
11
7.194
21
2.097
0
LINE
8
top_outsideCutPath
10
7.194
20
2.097
11
7.194
21
1.625
0
LINE
8
top_outsideCutPath
10
7.194
20
1.625
11
7.43
21
1.625
0
LINE
8
top_outsideCutPath
10
7.43
20
1.625
11
7.43
21
1.153
0
LINE
8
top_outsideCutPath
10
7.43
20
1.153
11
7.194
21
1.153
0
LINE
8
top_outsideCutPath
10
7.194
20
1.153
11
7.194
21
0.681
0
LINE
8
top_outsideCutPath
10
7.194
20
0.681
11
7.43
21
0.681
0
LINE
8
top_outsideCutPath
10
7.43
20
0.681
11
7.43
21
0.361
0
LINE
8
top_outsideCutPath
10
7.43
20
0.361
11
7.75
21
0.361
0
LINE
8
top_outsideCutPath
10
7.75
20
0.361
11
7.75
21
0.125
0
LINE
8
top_outsideCutPath
10
7.75
20
0.125
11
8.222
21
0.125
0
LINE
8
top_outsideCutPath
10
8.222
20
0.125
11
8.222
21
0.361
0
LINE
8
top_outsideCutPath
10
8.222
20
0.361
11
8.694
21
0.361
0
LINE
8
top_outsideCutPath
10
8.694
20
0.361
11
8.694
21
0.125
0
LINE
8
top_outsideCutPath
10
8.694
20
0.125
11
9.166
21
0.125
0
LINE
8
top_outsideCutPath
10
9.166
20
0.125
11
9.166
21
0.361
0
LINE
8
top_outsideCutPath
10
9.166
20
0.361
11
9.638
21
0.361
0
LINE
8
top_outsideCutPath
10
9.638
20
0.361
11
9.638
21
0.125
0
LINE
8
top_outsideCutPath
10
9.638
20
0.125
11
10.11
21
0.125
0
LINE
8
top_outsideCutPath
10
10.11
20
0.125
11
10.11
21
0.361
0
LINE
8
top_outsideCutPath
10
10.11
20
0.361
11
10.43
21
0.361
0
LINE
8
top_outsideCutPath
10
10.43
20
0.361
11
10.43
21
0.681
0
LINE
8
top_outsideCutPath
10
10.43
20
0.681
11
10.666
21
0.681
0
LINE
8
top_outsideCutPath
10
10.666
20
0.681
11
10.666
21
1.153
0
LINE
8
top_outsideCutPath
10
10.666
20
1.153
11
10.43
21
1.153
0
LINE
8
top_outsideCutPath
10
10.43
20
1.153
11
10.43
21
1.625
0
LINE
8
top_outsideCutPath
10
10.43
20
1.625
11
10.666
21
1.625
0
LINE
8
top_outsideCutPath
10
10.666
20
1.625
11
10.666
21
2.097
0
LINE
8
top_outsideCutPath
10
10.666
20
2.097
11
10.43
21
2.097
0
LINE
8
top_outsideCutPath
10
10.43
20
2.097
11
10.43
21
2.569
0
LINE
8
top_outsideCutPath
10
10.43
20
2.569
11
10.666
21
2.569
0
LINE
8
top_outsideCutPath
10
10.666
20
2.569
11
10.666
21
3.041
0
LINE
8
top_outsideCutPath
10
10.666
20
3.041
11
10.43
21
3.041
0
LINE
8
top_outsideCutPath
10
10.43
20
3.041
11
10.43
21
3.361
0
LINE
8
top_outsideCutPath
10
10.43
20
3.361
11
10.11
21
3.361
0
LINE
8
top_outsideCutPath
10
10.11
20
3.361
11
10.11
21
3.597
0
LINE
8
top_outsideCutPath
10
10.11
20
3.597
11
9.638
21
3.597
0
LINE
8
top_outsideCutPath
10
9.638
20
3.597
11
9.638
21
3.361
0
LINE
8
top_outsideCutPath
10
9.638
20
3.361
11
9.166
21
3.361
0
LINE
8
top_outsideCutPath
10
9.166
20
3.361
11
9.166
21
3.597
0
LINE
8
top_outsideCutPath
10
9.166
20
3.597
11
8.694
21
3.597
0
LINE
8
top_outsideCutPath
10
8.694
20
3.597
11
8.694
21
3.361
0
LINE
8
top_outsideCutPath
10
8.694
20
3.361
11
8.222
21
3.361
0
LINE
8
top_outsideCutPath
10
8.222
20
3.361
11
8.222
21
3.597
0
LINE
8
top_outsideCutPath
10
8.222
20
3.597
11
7.75
21
3.597
0
LINE
8
top_outsideCutPath
10
7.75
20
3.597
11
7.75
21
3.361
0
LINE
8
top_outsideCutPath
10
7.75
20
3.361
11
7.43
21
3.361
0
LINE
8
back_outsideCutPath
10
0
20
9.194
11
0
21
8.61
0
LINE
8
back_outsideCutPath
10
0
20
8.61
11
0.236
21
8.61
0
LINE
8
back_outsideCutPath
10
0.236
20
8.61
11
0.236
21
8.138
0
LINE
8
back_outsideCutPath
10
0.236
20
8.138
11
0
21
8.138
0
LINE
8
back_outsideCutPath
10
0
20
8.138
11
0
21
7.666
0
LINE
8
back_outsideCutPath
10
0
20
7.666
11
0.236
21
7.666
0
LINE
8
back_outsideCutPath
10
0.236
20
7.666
11
0.236
21
7.194
0
LINE
8
back_outsideCutPath
10
0.236
20
7.194
11
0
21
7.194
0
LINE
8
back_outsideCutPath
10
0
20
7.194
11
0
21
6.722
0
LINE
8
back_outsideCutPath
10
0
20
6.722
11
0.236
21
6.722
0
LINE
8
back_outsideCutPath
10
0.236
20
6.722
11
0.236
21
6.25
0
LINE
8
back_outsideCutPath
10
0.236
20
6.25
11
0
21
6.25
0
LINE
8
back_outsideCutPath
10
0
20
6.25
11
0
21
5.778
0
LINE
8
back_outsideCutPath
10
0
20
5.778
11
0.236
21
5.778
0
LINE
8
back_outsideCutPath
10
0.236
20
5.778
11
0.236
21
5.306
0
LINE
8
back_outsideCutPath
10
0.236
20
5.306
11
0
21
5.306
0
LINE
8
back_outsideCutPath
10
0
20
5.306
11
0
21
4.834
0
LINE
8
back_outsideCutPath
10
0
20
4.834
11
0
21
4.722
0
LINE
8
back_outsideCutPath
10
0
20
4.722
11
0.556
21
4.722
0
LINE
8
back_outsideCutPath
10
0.556
20
4.722
11
0.556
21
4.958
0
LINE
8
back_outsideCutPath
10
0.556
20
4.958
11
1.028
21
4.958
0
LINE
8
back_outsideCutPath
10
1.028
20
4.958
11
1.028
21
4.722
0
LINE
8
back_outsideCutPath
10
1.028
20
4.722
11
1.5
21
4.722
0
LINE
8
back_outsideCutPath
10
1.5
20
4.722
11
1.5
21
4.958
0
LINE
8
back_outsideCutPath
10
1.5
20
4.958
11
1.972
21
4.958
0
LINE
8
back_outsideCutPath
10
1.972
20
4.958
11
1.972
21
4.722
0
LINE
8
back_outsideCutPath
10
1.972
20
4.722
11
2.444
21
4.722
0
LINE
8
back_outsideCutPath
10
2.444
20
4.722
11
2.444
21
4.958
0
LINE
8
back_outsideCutPath
10
2.444
20
4.958
11
2.916
21
4.958
0
LINE
8
back_outsideCutPath
10
2.916
20
4.958
11
2.916
21
4.722
0
LINE
8
back_outsideCutPath
10
2.916
20
4.722
11
3.388
21
4.722
0
LINE
8
back_outsideCutPath
10
3.388
20
4.722
11
3.472
21
4.722
0
LINE
8
back_outsideCutPath
10
3.472
20
4.722
11
3.472
21
5.306
0
LINE
8
back_outsideCutPath
10
3.472
20
5.306
11
3.236
21
5.306
0
LINE
8
back_outsideCutPath
10
3.236
20
5.306
11
3.236
21
5.778
0
LINE
8
back_outsideCutPath
10
3.236
20
5.778
11
3.472
21
5.778
0
LINE
8
back_outsideCutPath
10
3.472
20
5.778
11
3.472
21
6.25
0
LINE
8
back_outsideCutPath
10
3.472
20
6.25
11
3.236
21
6.25
0
LINE
8
back_outsideCutPath
10
3.236
20
6.25
11
3.236
21
6.722
0
LINE
8
back_outsideCutPath
10
3.236
20
6.722
11
3.472
21
6.722
0
LINE
8
back_outsideCutPath
10
3.472
20
6.722
11
3.472
21
7.194
0
LINE
8
back_outsideCutPath
10
3.472
20
7.194
11
3.236
21
7.194
0
LINE
8
back_outsideCutPath
10
3.236
20
7.194
11
3.236
21
7.666
0
LINE
8
back_outsideCutPath
10
3.236
20
7.666
11
3.472
21
7.666
0
LINE
8
back_outsideCutPath
10
3.472
20
7.666
11
3.472
21
8.138
0
LINE
8
back_outsideCutPath
10
3.472
20
8.138
11
3.236
21
8.138
0
LINE
8
back_outsideCutPath
10
3.236
20
8.138
11
3.236
21
8.61
0
LINE
8
back_outsideCutPath
10
3.236
20
8.61
11
3.472
21
8.61
0
LINE
8
back_outsideCutPath
10
3.472
20
8.61
11
3.472
21
9.082
0
LINE
8
back_outsideCutPath
10
3.472
20
9.082
11
3.472
21
9.194
0
LINE
8
back_outsideCutPath
10
3.472
20
9.194
11
2.916
21
9.194
0
LINE
8
back_outsideCutPath
10
2.916
20
9.194
11
2.916
21
8.958
0
LINE
8
back_outsideCutPath
10
2.916
20
8.958
11
2.444
21
8.958
0
LINE
8
back_outsideCutPath
10
2.444
20
8.958
11
2.444
21
9.194
0
LINE
8
back_outsideCutPath
10
2.444
20
9.194
11
1.972
21
9.194
0
LINE
8
back_outsideCutPath
10
1.972
20
9.194
11
1.972
21
8.958
0
LINE
8
back_outsideCutPath
10
1.972
20
8.958
11
1.5
21
8.958
0
LINE
8
back_outsideCutPath
10
1.5
20
8.958
11
1.5
21
9.194
0
LINE
8
back_outsideCutPath
10
1.5
20
9.194
11
1.028
21
9.194
0
LINE
8
back_outsideCutPath
10
1.028
20
9.194
11
1.028
21
8.958
0
LINE
8
back_outsideCutPath
10
1.028
20
8.958
11
0.556
21
8.958
0
LINE
8
back_outsideCutPath
10
0.556
20
8.958
11
0.556
21
9.194
0
LINE
8
back_outsideCutPath
10
0.556
20
9.194
11
0.084
21
9.194
0
LINE
8
back_outsideCutPath
10
0.084
20
9.194
11
0
21
9.194
0
LINE
8
right_outsideCutPath
10
3.833
20
9.194
11
3.833
21
8.61
0
LINE
8
right_outsideCutPath
10
3.833
20
8.61
11
3.597
21
8.61
0
LINE
8
right_outsideCutPath
10
3.597
20
8.61
11
3.597
21
8.138
0
LINE
8
right_outsideCutPath
10
3.597
20
8.138
11
3.833
21
8.138
0
LINE
8
right_outsideCutPath
10
3.833
20
8.138
11
3.833
21
7.666
0
LINE
8
right_outsideCutPath
10
3.833
20
7.666
11
3.597
21
7.666
0
LINE
8
right_outsideCutPath
10
3.597
20
7.666
11
3.597
21
7.194
0
LINE
8
right_outsideCutPath
10
3.597
20
7.194
11
3.833
21
7.194
0
LINE
8
right_outsideCutPath
10
3.833
20
7.194
11
3.833
21
6.722
0
LINE
8
right_outsideCutPath
10
3.833
20
6.722
11
3.597
21
6.722
0
LINE
8
right_outsideCutPath
10
3.597
20
6.722
11
3.597
21
6.25
0
LINE
8
right_outsideCutPath
10
3.597
20
6.25
11
3.833
21
6.25
0
LINE
8
right_outsideCutPath
10
3.833
20
6.25
11
3.833
21
5.778
0
LINE
8
right_outsideCutPath
10
3.833
20
5.778
11
3.597
21
5.778
0
LINE
8
right_outsideCutPath
10
3.597
20
5.778
11
3.597
21
5.306
0
LINE
8
right_outsideCutPath
10
3.597
20
5.306
11
3.833
21
5.306
0
LINE
8
right_outsideCutPath
10
3.833
20
5.306
11
3.833
21
4.834
0
LINE
8
right_outsideCutPath
10
3.833
20
4.834
11
3.833
21
4.722
0
LINE
8
right_outsideCutPath
10
3.833
20
4.722
11
4.153
21
4.722
0
LINE
8
right_outsideCutPath
10
4.153
20
4.722
11
4.153
21
4.958
0
LINE
8
right_outsideCutPath
10
4.153
20
4.958
11
4.625
21
4.958
0
LINE
8
right_outsideCutPath
10
4.625
20
4.958
11
4.625
21
4.722
0
LINE
8
right_outsideCutPath
10
4.625
20
4.722
11
5.097
21
4.722
0
LINE
8
right_outsideCutPath
10
5.097
20
4.722
11
5.097
21
4.958
0
LINE
8
right_outsideCutPath
10
5.097
20
4.958
11
5.569
21
4.958
0
LINE
8
right_outsideCutPath
10
5.569
20
4.958
11
5.569
21
4.722
0
LINE
8
right_outsideCutPath
10
5.569
20
4.722
11
6.041
21
4.722
0
LINE
8
right_outsideCutPath
10
6.041
20
4.722
11
6.041
21
4.958
0
LINE
8
right_outsideCutPath
10
6.041
20
4.958
11
6.513
21
4.958
0
LINE
8
right_outsideCutPath
10
6.513
20
4.958
11
6.513
21
4.722
0
LINE
8
right_outsideCutPath
10
6.513
20
4.722
11
6.833
21
4.722
0
LINE
8
right_outsideCutPath
10
6.833
20
4.722
11
6.833
21
5.306
0
LINE
8
right_outsideCutPath
10
6.833
20
5.306
11
7.069
21
5.306
0
LINE
8
right_outsideCutPath
10
7.069
20
5.306
11
7.069
21
5.778
0
LINE
8
right_outsideCutPath
10
7.069
20
5.778
11
6.833
21
5.778
0
LINE
8
right_outsideCutPath
10
6.833
20
5.778
11
6.833
21
6.25
0
LINE
8
right_outsideCutPath
10
6.833
20
6.25
11
7.069
21
6.25
0
LINE
8
right_outsideCutPath
10
7.069
20
6.25
11
7.069
21
6.722
0
LINE
8
right_outsideCutPath
10
7.069
20
6.722
11
6.833
21
6.722
0
LINE
8
right_outsideCutPath
10
6.833
20
6.722
11
6.833
21
7.194
0
LINE
8
right_outsideCutPath
10
6.833
20
7.194
11
7.069
21
7.194
0
LINE
8
right_outsideCutPath
10
7.069
20
7.194
11
7.069
21
7.666
0
LINE
8
right_outsideCutPath
10
7.069
20
7.666
11
6.833
21
7.666
0
LINE
8
right_outsideCutPath
10
6.833
20
7.666
11
6.833
21
8.138
0
LINE
8
right_outsideCutPath
10
6.833
20
8.138
11
7.069
21
8.138
0
LINE
8
right_outsideCutPath
10
7.069
20
8.138
11
7.069
21
8.61
0
LINE
8
right_outsideCutPath
10
7.069
20
8.61
11
6.833
21
8.61
0
LINE
8
right_outsideCutPath
10
6.833
20
8.61
11
6.833
21
9.082
0
LINE
8
right_outsideCutPath
10
6.833
20
9.082
11
6.833
21
9.194
0
LINE
8
right_outsideCutPath
10
6.833
20
9.194
11
6.513
21
9.194
0
LINE
8
right_outsideCutPath
10
6.513
20
9.194
11
6.513
21
8.958
0
LINE
8
right_outsideCutPath
10
6.513
20
8.958
11
6.041
21
8.958
0
LINE
8
right_outsideCutPath
10
6.041
20
8.958
11
6.041
21
9.194
0
LINE
8
right_outsideCutPath
10
6.041
20
9.194
11
5.569
21
9.194
0
LINE
8
right_outsideCutPath
10
5.569
20
9.194
11
5.569
21
8.958
0
LINE
8
right_outsideCutPath
10
5.569
20
8.958
11
5.097
21
8.958
0
LINE
8
right_outsideCutPath
10
5.097
20
8.958
11
5.097
21
9.194
0
LINE
8
right_outsideCutPath
10
5.097
20
9.194
11
4.625
21
9.194
0
LINE
8
right_outsideCutPath
10
4.625
20
9.194
11
4.625
21
8.958
0
LINE
8
right_outsideCutPath
10
4.625
20
8.958
11
4.153
21
8.958
0
LINE
8
right_outsideCutPath
10
4.153
20
8.958
11
4.153
21
9.194
0
LINE
8
right_outsideCutPath
10
4.153
20
9.194
11
3.833
21
9.194
0
LINE
8
bottom_outsideCutPath
10
7.43
20
6.958
11
7.43
21
6.638
0
LINE
8
bottom_outsideCutPath
10
7.43
20
6.638
11
7.194
21
6.638
0
LINE
8
bottom_outsideCutPath
10
7.194
20
6.638
11
7.194
21
6.166
0
LINE
8
bottom_outsideCutPath
10
7.194
20
6.166
11
7.43
21
6.166
0
LINE
8
bottom_outsideCutPath
10
7.43
20
6.166
11
7.43
21
5.694
0
LINE
8
bottom_outsideCutPath
10
7.43
20
5.694
11
7.194
21
5.694
0
LINE
8
bottom_outsideCutPath
10
7.194
20
5.694
11
7.194
21
5.222
0
LINE
8
bottom_outsideCutPath
10
7.194
20
5.222
11
7.43
21
5.222
0
LINE
8
bottom_outsideCutPath
10
7.43
20
5.222
11
7.43
21
4.75
0
LINE
8
bottom_outsideCutPath
10
7.43
20
4.75
11
7.194
21
4.75
0
LINE
8
bottom_outsideCutPath
10
7.194
20
4.75
11
7.194
21
4.278
0
LINE
8
bottom_outsideCutPath
10
7.194
20
4.278
11
7.43
21
4.278
0
LINE
8
bottom_outsideCutPath
10
7.43
20
4.278
11
7.43
21
3.958
0
LINE
8
bottom_outsideCutPath
10
7.43
20
3.958
11
7.75
21
3.958
0
LINE
8
bottom_outsideCutPath
10
7.75
20
3.958
11
7.75
21
3.722
0
LINE
8
bottom_outsideCutPath
10
7.75
20
3.722
11
8.222
21
3.722
0
LINE
8
bottom_outsideCutPath
10
8.222
20
3.722
11
8.222
21
3.958
0
LINE
8
bottom_outsideCutPath
10
8.222
20
3.958
11
8.694
21
3.958
0
LINE
8
bottom_outsideCutPath
10
8.694
20
3.958
11
8.694
21
3.722
0
LINE
8
bottom_outsideCutPath
10
8.694
20
3.722
11
9.166
21
3.722
0
LINE
8
bottom_outsideCutPath
10
9.166
20
3.722
11
9.166
21
3.958
0
LINE
8
bottom_outsideCutPath
10
9.166
20
3.958
11
9.638
21
3.958
0
LINE
8
bottom_outsideCutPath
10
9.638
20
3.958
11
9.638
21
3.722
0
LINE
8
bottom_outsideCutPath
10
9.638
20
3.722
11
10.11
21
3.722
0
LINE
8
bottom_outsideCutPath
10
10.11
20
3.722
11
10.11
21
3.958
0
LINE
8
bottom_outsideCutPath
10
10.11
20
3.958
11
10.43
21
3.958
0
LINE
8
bottom_outsideCutPath
10
10.43
20
3.958
11
10.43
21
4.278
0
LINE
8
bottom_outsideCutPath
10
10.43
20
4.278
11
10.666
21
4.278
0
LINE
8
bottom_outsideCutPath
10
10.666
20
4.278
11
10.666
21
4.75
0
LINE
8
bottom_outsideCutPath
10
10.666
20
4.75
11
10.43
21
4.75
0
LINE
8
bottom_outsideCutPath
10
10.43
20
4.75
11
10.43
21
5.222
0
LINE
8
bottom_outsideCutPath
10
10.43
20
5.222
11
10.666
21
5.222
0
LINE
8
bottom_outsideCutPath
10
10.666
20
5.222
11
10.666
21
5.694
0
LINE
8
bottom_outsideCutPath
10
10.666
20
5.694
11
10.43
21
5.694
0
LINE
8
bottom_outsideCutPath
10
10.43
20
5.694
11
10.43
21
6.166
0
LINE
8
bottom_outsideCutPath
10
10.43
20
6.166
11
10.666
21
6.166
0
LINE
8
bottom_outsideCutPath
10
10.666
20
6.166
11
10.666
21
6.638
0
LINE
8
bottom_outsideCutPath
10
10.666
20
6.638
11
10.43
21
6.638
0
LINE
8
bottom_outsideCutPath
10
10.43
20
6.638
11
10.43
21
6.958
0
LINE
8
bottom_outsideCutPath
10
10.43
20
6.958
11
10.11
21
6.958
0
LINE
8
bottom_outsideCutPath
10
10.11
20
6.958
11
10.11
21
7.194
0
LINE
8
bottom_outsideCutPath
10
10.11
20
7.194
11
9.638
21
7.194
0
LINE
8
bottom_outsideCutPath
10
9.638
20
7.194
11
9.638
21
6.958
0
LINE
8
bottom_outsideCutPath
10
9.638
20
6.958
11
9.166
21
6.958
0
LINE
8
bottom_outsideCutPath
10
9.166
20
6.958
11
9.166
21
7.194
0
LINE
8
bottom_outsideCutPath
10
9.166
20
7.194
11
8.694
21
7.194
0
LINE
8
bottom_outsideCutPath
10
8.694
20
7.194
11
8.694
21
6.958
0
LINE
8
bottom_outsideCutPath
10
8.694
20
6.958
11
8.222
21
6.958
0
LINE
8
bottom_outsideCutPath
10
8.222
20
6.958
11
8.222
21
7.194
0
LINE
8
bottom_outsideCutPath
10
8.222
20
7.194
11
7.75
21
7.194
0
LINE
8
bottom_outsideCutPath
10
7.75
20
7.194
11
7.75
21
6.958
0
LINE
8
bottom_outsideCutPath
10
7.75
20
6.958
11
7.43
21
6.958
0
ENDSEC
0
EOF